<?xml version="1.0" encoding="UTF-8"?>
<!-- Created with Inkscape (http://www.inkscape.org/) -->
<svg width="4.2334mm" height="4.2333mm" version="1.1" viewBox="0 0 4.2334 4.2333" xmlns="http://www.w3.org/2000/svg">
 <defs>
  <filter id="filter8408" x="-.0040331" y="-.0076816" width="1.0081" height="1.0154" color-interpolation-filters="sRGB">
   <feGaussianBlur stdDeviation="0.37677478"/>
  </filter>
  <mask id="mask9139" maskUnits="userSpaceOnUse">
   <path d="m660.76 78.51v0.37369l4.1105 1.1211 2.9895 0.37366-0.74738-0.37366 0.37367 0.74731h-3.7368c0.42899 1.4431 1.1995 1.4948 2.6158 1.4948-1.6902 2.612-3.0923-0.5922-4.5466-1.4948-1.5373-0.95424-2.2021-0.42062-3.6744 0v1.1211l2.2421 0.37371v0.37366l-1.1211 0.37368v0.37369l4.8579 0.74734h-1.4948l-0.74734 1.1211v0.37372h6.3526v-0.37372l-1.8684-0.37365v-0.37372l3.7368-1.121-1.121-0.74737 3.7369-1.0588 3.3632-1.9307v-0.37366l-1.8684 0.37366v-0.37366l4.1105-1.4948c-0.93907-1.4511-3.5164-1.4233-5.2316-1.4947-1.778-0.0743-3.4155-0.62749-5.2316-0.24927-2.4476 0.50988-4.5403 2.0197-7.1 2.4912m27.653-2.2421 0.74736 1.4948-4.4842 0.74737c-1.4809-0.38972-3.4454-0.38692-4.1105 1.121l-1.121-0.74737-3.7369 1.8684v0.37371h1.4948l-4.4842 3.3631 2.9895 0.37371-1.8684 0.74737c1.2649 1.9546 3.5683 0.4362 5.6053 0.74734 1.9155 0.29261 3.5508 3.09 3.7368 4.8579l1.1211-0.74734-0.37371 2.2421 1.4948 0.37369-1.121 2.9895 1.121 2.2421c-0.54335 1.5878 2.1113 5.1358 4.1105 4.2974 0.86134-0.3612 0.92114-1.6992 1.2455-2.4289 0.38673-0.87004 1.022-1.6218 1.744-2.2421 0.77541-0.66629 1.8244-0.61079 2.5534-1.2456 0.51569-0.44868 0.63042-1.1734 1.1835-1.6194 1.5142-1.221 4.825-1.269 6.7263-1.6193v-0.37371l-2.2421-0.37369c1.0561-1.4469 1.3976-1.1663 2.9895-0.74737l-2.9895-1.4947-0.37367-1.8685 4.1105 0.37372 0.74739-1.1211-1.4948-1.121-0.37367-1.4948 1.8684-0.37366v-0.37371l0.24927-2.5535-0.62296-1.1834 4.4842-1.4947v-0.37371l-5.979 0.74737c-0.86807-2.1304-5.7372 0.32799-7.4737 0.37371v-0.37365l7.4737-1.8684v-0.37371h-2.2421l0.37367-0.74735-6.3527 0.37366v-0.37366l1.1211-0.37371-4.8579 0.18682-2.9895-0.18682m-2.4913 0.249 0.12478 0.24927-0.12478-0.24927m1.744-0.249 0.37368 0.37371-0.37368-0.37371m-2.9895 0.37371 0.37367 0.37366-0.37367-0.37366m21.549 1.6193 0.24905 0.12436-0.24905-0.12436m46.835 0.9965 1.1211-0.74737-1.1211 0.74737m3.4876-0.49827 0.12463 0.24955-0.12463-0.24955m-7.5982 0.12436 0.37366 0.37372-0.37366-0.37372m-79.969 1.1211-1.121-0.37372 1.121 0.37372m81.837-0.74737v0.37365h1.4947l-1.4947-0.37365m3.7368 0 0.37366 0.37365-0.37366-0.37365m19.058 0 0.37363 0.37365-0.37363-0.37365m-27.653 0.74737v0.74734l1.4948 0.37368v-1.4947l-1.4948 0.37372m1.8684 0 1.4947 1.4947 2.9895-0.74734-4.4842-0.74734m7.4737-0.37372-0.74734 1.1211 0.74734-1.1211m1.1211 0.37372v0.37365l1.4947-0.37365h-1.4947m18.684 0.74734h2.2421v-1.1211l-2.2421 1.1211m-22.421-0.74734 0.37371 1.121 0.7474-1.121h-1.1211m-23.542 0.74734-0.37368 1.4948h-2.9895l-1.121-0.74743-0.37371 1.8685 3.3632-0.74737-1.121 2.6158 1.4948 0.37371 2.2421-2.2421-1.1211-1.4948 4.4842-0.37371v-0.37366l-4.4842-0.37368m8.3455 0.24927 0.12491 0.24899-0.12491-0.24899m-82.211 0.37366 0.12477 0.24927-0.12477-0.24927m98.902-0.24927 0.37366 0.37365-0.37366-0.37365m20.179 0v0.37365l4.4842 1.4948v-1.8684l-0.74737 0.74737h-0.37371l-3.3632-0.74737m-122.57 0.74737 3.3632 2.2421c-0.47607-1.6013-1.8068-1.9554-3.3632-2.2421m127.8 1.8684 2.6158-0.37366c-0.61996-1.6907-2.0515-0.9432-2.6158 0.37366m-45.963-1.121 0.37366 0.37368-0.37366-0.37368m1.3703 0.12436 0.249 0.12436-0.249-0.12436m-87.692 0.62279v0.37371l0.74737 0.37363-1.121 0.37371v0.37369l1.8684-1.4947h-1.4948m9.3421 0 0.74738 0.74734v-0.74734h-0.74738m126.68 0 0.37365 0.37371-0.37365-0.37371m-77.353 0.37371 0.37367 0.37363-0.37367-0.37363m24.663 0.37363v0.37371h1.4947l-1.4947-0.37371m43.721-0.37363 0.37371 0.37363-0.37371-0.37363m-109.86 0.37363v0.7474h-0.74738l0.74738-0.7474m108.74 0 0.37371 0.37371-0.37371-0.37371m7.4737 2.2422-9.7158 1.4947 0.37371 1.4947-3.7369-0.37369 1.4947 3.7368h-0.37365c-0.61847-1.5663-1.744-2.4224-3.3632-1.8684l0.74737 1.1211-2.6158-1.4947c-1.1704 2.7794 1.6472 3.4801 2.9895 5.6053l-2.6158-1.8684c-0.77357 1.5473-2.2324 3.92-3.7368 1.8684l1.4947 0.37371 0.37371-6.7263c-1.2399 0.0333-3.1427 1.0645-2.9271 2.6158 0.1051 0.75686 0.83891 1.4834 1.0587 2.2421l-3.7369-1.121-1.8684 0.87187-4.8579 0.37371-4.1105 1.7439-0.7474-1.4948v2.2421c-1.4162 0-2.1868 0.0517-2.6158 1.4947l-1.4947-0.37366c-0.74927 2.1117-2.3177-1.0173-2.9895-1.8684h4.8579v-0.74739c-2.3154-1.5841-4.3146-2.2421-7.1-2.2421l0.37369-1.1211-3.3008-0.31137-8.6572 5.9166c0.64722 2.459-1.2369 1.673-2.4914 3.114-0.89575 1.0293-0.33852 2.4509-0.12436 3.6123l2.9895-0.74737 1.121 3.3632c1.6184-0.34072 2.9914-1.7097 3.3008-3.4254 0.24927-1.382-1.0531-1.934 0.12464-3.3009 0.76456-0.88763 1.698-2.1691 2.5534-2.9272 0.39086-0.34636 1.108-0.24844 1.2455 0.3114 0.18352 0.74745-0.77576 1.328-1.121 1.8684-0.69581 1.0891-0.58518 2.2692-0.12436 3.3632h4.4842v0.37368l-3.7369 0.37366 0.37365 2.2421-1.4947-0.37372c-0.32067 0.71661-0.46638 1.6433-1.1211 2.1798-0.67333 0.55189-1.463 0.34411-2.2421 0.5605-1.994 0.55396-4.2589 0.60293-4.1106-1.9929h-0.37371v2.6158l-8.5947 4.8579v0.37368c1.1767 0.69955 3.1644 3.3729 0.74736 4.0481-1.0317 0.28831-2.318-0.83217-3.3008-0.12436-1.0492 0.75527-0.58291 4.1064 0.3113 4.7955 3.6285 2.796 5.3456-3.436 7.5361-4.7955 2.3367-1.4502 3.5761 0.28716 5.1692 1.5572 1.0284 0.81984 1.8546 1.0635 2.2421 2.3665h0.37371l0.37366-1.8684-3.3632-3.7369c2.587 0 4.0941 2.991 5.356 4.8579 0.5022 0.74256 0.99664 0.97872 0.99664 1.8684l1.121-0.37364-0.74737-1.8684 3.1763-1.1835 2.429-4.1726 2.2421 1.2455-0.37368-1.1211 2.2421-0.74739c-0.14967 0.81466-0.44134 1.503 0.0627 2.2421 0.40323 0.59192 2.0422 1.2828 1.6192 2.1797-0.37448 0.79411-1.3748 0.64012-2.0553 0.49854-1.9772-0.41223-4.6359-0.84491-6.2902 0.80941-1.9409 1.9409 1.1943 2.865 2.5534 2.865h2.6158c-0.0512 0.64535-0.145 1.2373-0.31129 1.8684-1.2724 4.8213-4.8804 1.6816-8.2835 1.6816-1.1069 0-1.2657 1.186-2.2421 1.3703-0.93721 0.17636-2.9338-1.1656-3.7369-1.6195-1.4694-0.83035-0.6237-2.7896-1.8684-3.2384-3.1558-1.1382-6.5694 1.5553-9.7158 1.0587-0.61472 0.86507-1.5859 1.6767-2.0553 2.6158-0.37443 0.74886-0.11487 1.5104-0.62295 2.2421-1.0612 1.5284-2.9125 2.6491-3.55 4.4842-0.4002 1.1528-9e-3 2.544-0.12439 3.7368-0.10276 1.0556-0.88039 2.3157-0.5605 3.3632 0.32808 1.0743 1.3778 2.0186 1.9308 2.9895 0.8195 1.4395 1.3643 3.0048 3.1139 3.6125 2.5975 0.90169 5.0473-1.0893 7.4737-0.7474 0.77799 0.1095 1.0063 0.72049 1.6192 1.0586 0.93608 0.51645 1.7447-0.3202 2.3045 0.93421 0.61394 1.3763-0.16122 3.0657 0.31126 4.4842 0.65361 1.9604 2.1562 3.4383 2.3669 5.6052 0.13784 1.4196-0.87965 2.7059-0.99661 4.1105-0.12216 1.4656 0.65206 2.7328 0.99661 4.1105 0.55159 2.2063 0.9275 4.2892 1.9305 6.3526 0.42821 0.88045 0.34155 2.6838 0.87214 3.3008 0.6962 0.80979 2.0744 0.36474 2.9271 0.18681 2.5964-0.54074 4.2649-1.2652 5.4184-3.8613 0.56947-1.2814 1.6046-2.8396 1.9929-4.1105 0.31539-1.0314-0.45815-2.5545 0.18682-3.4255 0.85126-1.1491 2.5896-1.4791 3.1143-2.9271 0.95105-2.6255-1.5733-5.4173-0.56056-7.8474 1.1009-2.6424 3.4465-4.0964 5.0448-6.3527 1.1367-1.605 2.0115-3.6775 2.3666-5.6053l-4.1105 0.24927-1.9929-2.4914-2.3045-3.3632-1.0586-3.7368-2.1177-4.1106c3.238 1.0224 4.7297 6.0963 6.1658 8.9685 0.36917 0.73841 0.32473 2.3322 0.99655 2.8026 0.97799 0.68461 2.469-0.45587 3.3008-0.87179 2.7544-1.3774 5.6557-2.7312 6.3527-6.0414l-1.8684-1.8684c-0.68979 0.19975-1.5601 1.0059-2.2421 0.99659-1.6069-0.0193-2.7275-3.4887-2.9895-4.7334l2.9895 2.0553 1.8684 0.24927 1.5572 0.99623 4.0481 0.49848 3.3632 1.806-0.37368 1.1211 1.4947-0.74737 2.9895 10.09h0.74737c0.53998-1.466 0.40808-3.5747 1.2455-4.858 1.9133-2.9308 6.3089-7.4677 8.5327-2.6158 0.29048 0.63377 0.29323 1.1827 0.31128 1.8684l1.8684-0.74732c0.0352 1.328 0.62105 2.439 0.74737 3.7368 0.27128 2.7922 0.27348 6.2327 2.9895 7.8474-0.0647-2.4529-1.8023-3.4487-2.4914-5.6052-0.41104-1.287 0.57066-3.3823 2.0553-2.1177 0.6629 0.56504 1.0612 1.7668 1.5571 2.4914 2.0373-1.1798 2.8314-2.9944 1.8061-5.2316-0.36436-0.79516-1.5968-2.0567-1.2455-2.9895 0.50935-1.352 2.084-1.1561 3.1764-1.4947 2.2537-0.69842 3.8915-1.3105 5.2316-3.3632 0.67113-1.028 1.8314-3.0953 0.37368-3.7369v-0.74735h0.74737v-0.37368c-1.1464-1.6756-0.92783-2.0579 0-3.7369l-2.2421-0.37366 2.6158-2.6158-0.37371 1.4947 2.6158-0.37369 0.74739 3.7369c2.6931-0.80083-0.0366-2.7111 1.121-4.4842 0.55453-0.84936 1.3053-1.88 2.2421-2.3045 0.49695-0.22478 0.97493-0.0289 1.4947-0.37368 2.7073-1.8049 4.6468-6.2312 3.3632-9.2797l-2.9895-0.37372c0.94283-1.6284 3.6042-4.3653 5.6053-4.671 0.93052-0.14225 2.4043-0.18654 3.3632-0.18654 0.85242 0 1.6887 0.60909 2.5534 0.31134 1.1868-0.4086 3.337-3.9406 4.1729-1.4324l2.6158-1.8684-5.4809 5.979 0.24927 4.4842 4.1105-4.4842c-0.60873-2.1035 0.5183-4.0762 2.9895-4.1106 0.63936-8e-3 1.2141 0.38543 1.8684 0.24899 1.9406-0.40425 3.0953-1.7439 5.2316-1.7439l-1.8684-2.2421v-0.37368c1.5007 0 2.2672 0.11748 2.6158-1.4947l4.1105 1.6816 1.8684-1.3079c-0.99328-1.0835-1.7518-1.0923-2.9895-0.37363-0.71449-3.3049-6.1711-3.7368-8.9685-3.7368v1.121c-1.7488-0.13812-4.3381-0.2545-5.979-0.80966-0.78361-0.26523-1.0605-1.1126-1.8684-1.3701-2.2078-0.70398-3.701 0.87803-5.2316-1.557l-2.6158 0.74731c-0.3445-1.0645-1.3755-1.5056-2.5534-1.0588-0.61319 0.23276-0.70324 0.91817-1.2459 1.2456-0.96934 0.58502-2.5885 0.0479-3.6744 0.24927-0.50525 0.0935-0.94654 0.573-1.4948 0.43592-0.77686-0.19396-1.5437-1.2149-2.242-1.6193v-0.37366l0.74734-0.74739-4.4842 0.31139-4.8579-0.31139c-0.2721-1.2579-0.5945-1.4603-1.8684-1.4947v-0.37371c1.1506-0.12436 1.3703-0.34402 1.4947-1.4947l-5.2316-0.74737v-1.1211c-1.2821 0.38115-1.4603 0.93345-1.4947 2.2421m-119.95-1.8684 0.37367 0.37366-0.37367-0.37366m116.22 0 0.37371 0.37366-0.37371-0.37366m-135.27 1.8684 0.37367 0.37366 2.6158-1.4947c-1.0278-0.70074-2.2967 0.17636-2.9895 1.1211m4.4842-1.4948 0.3737 0.37368-0.3737-0.37368m26.158 0 0.37367 0.37368-0.37367-0.37368m100.15 0 0.37366 0.37368-0.37366-0.37368m37.369 0.37368 0.37366 0.37369-0.37366-0.37369m-160.31 0.37369c-0.636 2.1389-2.7199 0.74739-4.4842 0.74739v0.74737l1.8684 1.121 4.1105-1.121v-0.37371l-1.4948-1.121m2.9895 0 0.37367 0.37368-0.37367-0.37368m1.4948 0 1.4947 1.8684 0.37367-1.121-1.8684-0.74739m3.3632 0v0.37368c1.4458 0.11418 1.7914 0.90499 2.9895 1.4947 1.3135 0.64662 3.0683 0.37371 4.4842 0.37371 1.2956 0 2.4394 0.37795 2.6158-1.1211l-5.979 0.24927-4.1105-1.3702m94.169 4.1105-1.4948 1.4947 2.2421 0.74734c-1.4013-3.9887 4.6352-5.0825 7.4737-5.979-0.75973-0.44888-1.636 0.0448-2.6158 0.24927-2.1061 0.4387-6.2805 0.27956-5.6053 3.4877m-96.784-3.7368 0.37367 0.74737h-0.74738l0.37371-0.74737m146.98 0.62282 0.12463 0.24899-0.12463-0.24899m1.3703-0.24927c0.18792 1.5979 2.4368 1.5221 2.6158 0h-2.6158m2.9895 0 1.121 0.74737-1.121-0.74737m-152.84 0.37365 0.37367 0.37372-0.37367-0.37372m52.69 0 0.37371 0.37372-0.37371-0.37372m-53.811 0.37372 0.37367 0.37365-0.37367-0.37365m5.2316 0 1.121 0.74737-1.121-0.74737m110.61 0 0.37366 0.37365-0.37366-0.37365m-38.863 0.37365 0.37366 0.37372-0.37366-0.37372m57.547 0.7474c-1.0209 1.3971-2.0654 1.4947-3.7368 1.4947 0.95771-1.3497 2.1262-1.9186 3.7368-1.4947m-141.63 1.4947c-0.408-1.2611-3.22-2.2949-4.2974-0.9965-0.72946 0.87913-0.64037 3.0773 0.93422 2.6781 1.2176-0.3087 2.0633-1.4079 3.3632-1.6816m159.94-1.4947 1.1211 1.121-1.1211-1.121m-147.98 2.9895-0.37367-2.6158c-2.738 0.5764-2.2851 2.6158 0.37367 2.6158m1.4947-2.6158v2.2421h0.37371l1.4947-2.2421h-1.8684m102.39 0 0.37371 0.37371-0.37371-0.37371m26.532 0-0.37368 0.37371 0.37368-0.37371m-136.02 0.37371-1.1211 1.8684-4.1105-0.37366c-0.46432-1.0975-1.2847-0.35275-2.2421 0 0.72858 1.7971 2.0007 1.4947 3.7368 1.4947v0.37372l-2.6158 0.37366v0.37371l8.2211 0.74737 0.37367-1.4947c-2.0287-0.58727-1.602-1.9548-2.2421-3.3632m15.695 0 1.8684 0.74737-1.8684-0.74737m97.158 0 0.37371 0.37366-0.37371-0.37366m-90.805 7.4737-2.2421 0.37372-2.6158 2.242 7.8474 2.6158-0.3737-1.121h0.74736l-1.4947-4.1105c1.4548 0.80397 2.7193 1.7925 3.3632-0.37371l-3.7368-1.4947c0.69355-2.0805-1.2018-1.7673-2.6158-2.6158l0.37367-0.37365-2.6158-1.0588-3.7368 0.31137v-1.4947c-1.9237 0.0509-1.7732 0.99562-2.2421 2.6158-0.15501-0.65448 0.20016-1.9744-0.43609-2.4289-1.4615-1.0439-2.8729 1.151-1.9928 2.4289 0.71522 1.0388 2.0807 0.73219 3.1763 0.74738 1.6165 0.0192 4.2394 0.32099 5.6053 1.2456 1.2941 0.87602 1.4084 2.7049 2.9895 2.4912m-9.7158-5.979-0.3737 0.37366 0.3737-0.37366m36.995 0.74737-0.37367 0.37369 0.37367-0.37369m-86.321 2.9895 2.6158 2.9895h-3.3632c0.43535 2.0134 2.0817 1.6002 3.7368 1.121-0.44599 1.5407-1.6842 1.529-2.429 2.6781-1.4756 2.2767 3.333 3.3009 4.6711 3.3009l-1.4947 2.6158 2.9895-1.8685 2.9895-2.9894-0.74737 1.4948c0.80552-0.23937 1.5028-1.3248 2.2421-1.3702 0.70761-0.0435 1.5479 0.68876 2.2421 0.87197 3.1845 0.84034 6.0441 1.3966 8.0965 4.2351 0.92742 1.2826 1.0492 3.1061 2.1798 4.3596 1.0166 1.1271 2.2503 1.8106 3.1764 3.114-1.6 0.70588-1.4948 2.503-1.4948 4.1105 0 4.5889 3.6831 6.7435 5.543 10.463 0.86393 1.7279 1.401 4.2559 3.4255 4.8579l-2.9895-5.9789c1.8395 0.57808 4.13 4.9674 5.1072 6.7263 0.47906 0.86287 0.47869 1.7997 1.2455 2.4914 1.0112 0.91182 2.8157 1.8643 4.1105 2.2421 0.81087 0.23605 1.5523-0.14583 2.3045 0.24898 1.21 0.63491 3.0067 1.3172 4.0481 2.1801 0.85126 0.70478 0.92525 1.7731 1.8684 2.3666 1.154 0.72608 3.2522 0.4025 3.9861 1.3079 1.4873 1.8356-0.32025 3.6079-0.99662 5.2316-0.49999 1.2002-0.34566 2.1696 0 3.3632-1.1457 0.46671-0.52428 1.25-0.1245 2.2421 0.68611 1.704 1.188 3.6143 2.0553 5.2316 0.78887 1.4712 2.7126 1.9641 3.4876 3.3632 0.69731 1.259 0.19589 3.9043-0.0626 5.2316-0.31128 1.6012 0.0836 3.2608-0.249 4.8579-0.31539 1.513-1.2022 2.9719-1.3703 4.4842-0.16783 1.5086 0.75259 7.1-1.121 7.1l1.4948 1.8684v0.37366l-1.1211 2.9895 1.8684 1.4947h0.37367l2.8026-4.8579-0.3737-2.2421 0.93422-4.1105c1.4196-0.14939 1.7941-1.0672 2.9895-1.6815 0.43869-0.22534 1.1042-0.0743 1.4947-0.37372 1.2384-0.95028 0.53215-2.053 0-3.1763 3.0168 0.87327 4.7828-1.6928 5.4809-4.4842 0.19771-0.7907 0.0317-1.5549 0.56052-2.2421 1.182-1.5366 3.547-1.6184 4.6711-2.9895 1.4084-1.7186 0.79485-4.0351 1.3079-5.979 0.45291-1.7163 2.9521-3.2264 2.429-5.2315-0.60391-2.315-3.4786-1.9884-5.1072-2.8027-0.7388-0.36956-1.3427-1.2582-2.2421-1.1834-0.92412 0.0768-1.611 0.89085-2.6158 0.99659v-0.37363l1.121-1.1211-1.8684 0.74737c0.24135-0.43685 0.78472-1.0202 0.93422-1.4947 0.9428-2.9944-2.3669-3.0919-3.9237-4.173-0.98765-0.68571-1.6282-1.8053-2.6158-2.491-1.0142-0.70439-2.5545-0.49664-3.7368-0.93421-0.4746-0.17581-0.96336-0.5624-1.4948-0.37369-0.59939 0.21268-0.85538 1.114-1.121 1.6192v-1.8684c-1.4454 0.53249-2.2851 1.0452-2.6158 2.6158-1.1113-0.67268-2.3041-0.37369-3.3632-0.93422-1.5437-0.81728-1.121-2.8456-1.121-4.2974l-2.9895-0.37366 0.74738-4.1106c-1.8965 0.0501-3.0661 2.9387-4.8579 2.0553-2.0463-1.0089-2.8135-5.6232-1.0586-7.1624 1.488-1.3053 3.0836-0.54336 4.7955-0.49812 0-1.4275 1.9854-1.4694 2.9895-0.68497 0.99553 0.77766 1.2444 2.2698 1.8684 3.3008h0.37367l-0.56052-4.4842 3.0519-4.1105-0.24927-2.2421 1.121 0.37368 2.429-2.7402 0.37367-1.3703 4.2974-1.8684v0.37367l-1.1211 1.1211 2.6158-1.4947v-0.37372c-1.8987 0.39987-2.7489-0.49658-2.2421-2.2421l-3.3632 1.121c2.4824-2.4823 5.2727-2.7512 8.5948-3.3632v-1.8684l-2.2421 0.37368 1.1211-1.4948c-1.9753-1.2475-3.235-2.4745-3.7369-4.8578-0.69654 0.27512-2.0885 1.4422-2.865 1.1833-0.95214-0.31737-0.65544-1.5881-1.0586-2.2421-0.63936-1.0369-2.7563-2.0591-3.9237-1.3702-1.7496 1.0326-0.57135 4.0259-0.43609 5.4184 0.15132 1.5542-0.78064 4.2292-1.4323 5.6053h-0.3737l-1.6816-2.2421-0.62295-1.6816-5.356-3.0518-1.2455-1.6193 1.121-1.8684 1.121-1.4947 2.1797-1.1211v-0.74737l-1.121-0.37368v-0.37372c1.9902 0.0525 2.1995 0.81916 1.8684 2.6158l3.3632-0.3737-2.9895-2.9894 2.6158-0.37371c-0.13759-1.7399-0.35722-2.8407-2.2421-2.9895 0.10983 1.2829-0.27062 1.8573-1.4948 2.2421l-0.3737-1.8684-1.8684 0.74737c-0.18277-1.5999-1.8337-4.4881-2.9895-1.8684l1.1211 0.37371v0.37369h-2.9895l0.3737 1.121 1.4947-0.37371c-1.9323 2.3713-4.8381 0.23799-7.1 0l-0.37368 2.2421-4.8579-1.1211 0.37368-1.121-8.2211-0.99648-2.9895 1.3702 0.74737-1.121-1.4947 0.37368 0.37366 2.2421-1.1833-1.7439-3.3009-0.99645-6.2281-0.93418-3.8614-0.68514-4.8579 2.4912m214.5-2.6158v0.37368h1.4948l-1.4948-0.37368m-191.7 0.37368 0.3737 0.37369-0.3737-0.37369m74.363 0.37369 0.37366 0.37366-0.37366-0.37366m42.226 0 1.121 1.1211-1.121-1.1211m-25.037 0.37366 0.37368 0.37371-0.37368-0.37371m-44.842 0.7474 0.37367 0.37368-0.37367-0.37368m63.526 0.74734 1.1211-0.74734-1.1211 0.74734m-89.684-0.37366-0.3737 0.37366 0.3737-0.37366m0.74737 0.37366-1.1211 1.121 1.1211-1.121m68.011 0 0.37368 0.37371-0.37368-0.37371m-76.979 0.37371 0.3737 0.37369-0.3737-0.37369m18.311 0 0.3737 0.37369-0.3737-0.37369m57.548 0 0.37366 0.37369-0.37366-0.37369m-55.679 0.37369-0.37367 0.74737h0.74737l-0.37396-0.74748m33.258 3.3631v0.37369c2.2215 1.0524 3.417 0.43248 5.6053-0.37369-1.1125-2.7444-3.6756-0.76173-5.6053 0m-0.1245-0.99647 0.24899 0.12436-0.24899-0.12436m20.303 1.7439 0.37366 0.37369-0.37366-0.37369m-112.11 0.74737v0.37371l1.4947 0.37366-1.4947-0.74737m58.295 0 0.37367 0.37371-0.37367-0.37371m6.3526 0.74737-1.121-0.37366 1.121 0.37366m-10.588 0.49821 0.24899 0.12436-0.24899-0.12436m1.9929-0.12436v0.7474l0.74737-0.7474h-0.74737m45.59 0v1.1211h0.37371l-0.37371-1.1211m23.916 0.7474 1.1211 1.4947h-1.4947l0.37366-1.4947m-62.032 1.121 0.37368 0.37368-0.37368-0.37368m41.853 0 0.37368 0.37368-0.37368-0.37368m13.079 0 0.37369 0.37368-0.37369-0.37368m-115.84 0.37368 0.37368 0.37372-0.37368-0.37372m101.27 1.1211c-0.75557 0.84449-1.4757 1.7572-1.0586 2.9895 0.54633 1.6143 1.7855 1.2918 0.31125 2.9895l0.37368 1.4947c0.49143 0 1.0048 0.0363 1.4948 0 3.8934-0.28826-0.71711-4.1156-0.37369-5.9789l-1.1211-0.37371 0.37371-1.121m-2.2421 0.3737 0.37371 0.3737-0.37371-0.3737m18.311 0 0.37369 0.3737-0.37369-0.3737m-108.74 0.3737-0.74737 1.121 0.74737-1.121m10.089 0.37365 0.37371 0.37371-0.37371-0.37371m80.342 0 0.37371 0.37371-0.37371-0.37371m15.695 0.37371 0.37371 0.37365-0.37371-0.37365m-107.25 0.74735 0.37368 0.3737-0.37368-0.3737m-3.7368 0.3737 0.37368 0.3737-0.37368-0.3737m-0.74737 0.3737 0.37368 0.37365-0.37368-0.37365m3.7368 0 0.37368 0.37365-0.37368-0.37365m13.951 0.24926 0.1245 0.24899-0.1245-0.24899m185.6-0.24926 0.37369 0.37365-0.37369-0.37365m-95.663 0.37365 0.37368 0.37371-0.37368-0.37371m-109.12 0.37371 0.37368 0.37368-0.37368-0.37368m96.784 0-0.74737 2.6158c1.4682-0.1549 1.9454-0.83211 2.2421-2.2422l-1.4947-0.37368m-98.279 0.37368-0.37369 0.74735h0.74737l-0.37368-0.74735m192.07 0c-0.27183 1.4776-0.71218 6.5051 0.7474 7.1l0.37368-2.2421-1.1211-4.8579m15.321 0 0.37366 0.37367-0.37366-0.37367m-186.84 0.37367 0.3737 0.37369-0.3737-0.37369m31.763 0.74737v0.7474h0.74737l-0.74737-0.7474m147.61 2.2421 0.37372 0.37368-0.37372-0.37368m-175.63 0.37368 0.37367 0.37369-0.37367-0.37369m44.095 0-1.8684 2.2421 2.6158 1.121 1.4948-0.37368v-0.37366l-2.2421-1.4947v-1.1211m-19.805 0.37368-0.37367 0.37369 0.37367-0.37369m15.321 0.37369 1.121 0.74739-1.121-0.74739m135.65 0 0.37368 0.37371-0.37368-0.37371m-146.11 3.7369-0.74737 1.4948-1.4948-1.8685h-0.74737l-0.74734 2.9895h-0.3737c-0.66963-1.5908-0.24135-2.3688 1.121-3.3632l-3.3632-0.74737c1.7496-2.0677 2.5351-0.5164 4.1105 0.62292 0.63676 0.46041 1.5493 0.56201 2.2421 0.87184m2.2419-1.744c0.28894 0 0.0598 0.18627-0.1245 0.12464l0.1245-0.12464m10.089 0.62293 0.37367 0.37369-0.37367-0.37369m70.626 0-1.121 1.1211 0.74737 3.3632 1.121-0.37371-0.74738 0.7474c0.33151 0.69991 0.83745 1.42 0.74738 2.2421-0.13317 1.2152-1.7657 1.3786-2.5534 0.62295-0.84114-0.80677 0.071-1.8871-0.18682-2.865-0.46786-1.772-2.2092-3.9159 0.49813-4.7335 0.48764-0.14747 0.9951-0.11115 1.4947-0.12436m4.8579 0.7474-1.1211 1.4947 0.37369-1.4947h0.74737m54.309 0.24927 0.12464 0.249-0.12464-0.249m-4.2349 0.12436-0.7474 2.9895c1.5564-0.28655 2.8871-0.64086 3.3632-2.2421l-2.6158-0.74737m3.3632 0.37372 0.37363 0.37365-0.37363-0.37365m-139.01 0.74734v0.37368l-3.3632 1.4947 3.3632-1.8684m138.64 0.37368 0.37372 0.37369-0.37372-0.37369m-85.325 0.87179 0.24899 0.12491-0.24899-0.12491m81.588 1.3704c-0.95138 3.0126-3.8281 4.4689-6.7263 5.2315l0.37368 2.6158c1.0445-0.32812 1.5904-1.201 2.6158-1.6816 1.0587-0.49626 2.7783-0.47087 3.6744-1.1211 1.1902-0.86358 1.2949-3.893 0.80983-5.0447h-0.7474m-85.2 1.1211 1.1211-0.7474-1.1211 0.7474m3.3632-0.7474v0.7474h0.7474v-0.7474h-0.7474m-4.4842 1.121 0.37369 0.37371-0.37369-0.37371m13.453 0 0.37369 0.74739-0.37369-0.74739m-5.979 1.4948 1.1211-0.74737-1.1211 0.74737m8.2211 0.37372 0.37366 0.37365-0.37366-0.37365m-7.8474 0.74734 0.37371 0.37371-0.37371-0.37371m11.584 0 0.7474 0.74737v-0.74737h-0.7474m-12.705 0.37371 0.37369 0.37366-0.37369-0.37366m76.232 0.74732-0.37369 0.37371 0.37369-0.37371m-5.2316 0.7474 0.37371 0.37368-0.37371-0.37368m-119.21 0.37368 0.3737 0.37371-0.3737-0.37371m29.895 0.37371 0.37368 0.37366-0.37368-0.37366m90.432 0 0.37368 0.37366-0.37368-0.37366m-90.805 2.9895 0.3737 0.37371-0.3737-0.37371m2.2421 0.37371 0.37368 0.37366-0.37368-0.37366m89.311 0 0.37368 0.37366-0.37368-0.37366m-129.67 0.74737 0.37367 0.37366-0.37367-0.37366m38.116 0 0.3737 0.37366-0.3737-0.37366m-36.995 0.37366 0.3737 0.37371-0.3737-0.37371m127.43 0v0.74734l0.74739-0.74734h-0.74739m-127.05 0.74734 0.37367 0.37371-0.37367-0.37371m81.463 0 0.37372 0.37371-0.37372-0.37371m41.479 1.1211-0.37369 1.4947 0.37369-1.4947m-122.94 0.37369 1.121 0.7474v-0.37372l-1.121-0.37368m-4.4842 0.7474 0.37371 1.121 0.74737-0.74735 2.9895 2.2421 1.4948-0.37368v-0.74737l-5.6053-1.4947m7.1 0.37365 0.37367 0.37372-0.37367-0.37372m-0.3737 0.74732 0.3737 0.37371-0.3737-0.37371m113.6 1.1211-0.37371 0.74737 0.37371-0.74737m-113.6 0.74737v0.37371h2.6158l-2.6158-0.37371m-3.3632 0.37371 0.74737 0.74737v-0.74737h-0.7474m7.3493 0.12436 0.24899 0.12464-0.24899-0.12464m116.71-0.12436c-0.65357 2.2574 0.34529 4.0522 2.6158 4.8579l-1.8685-2.6158v-2.2421h-0.74735m-115.47 0.37366 0.37367 0.37371-0.37367-0.37371m1.8684 0.37371 0.37367 0.37363-0.37367-0.37363m0 1.121 0.37367 0.37369-0.37367-0.37369m23.168 0.74737 0.37367 0.37369-0.37367-0.37369m-22.795 0.37369-0.37367 1.1211h0.37367v-1.1211m115.47 0 0.37372 0.37368-0.37372-0.37368m-20.179 1.1211 0.37363 0.37366-0.37363-0.37366m17.937 0 0.37366 0.37366-0.37366-0.37366m-116.96 0.37366 0.37367 0.37368-0.37367-0.37368m75.111 0 0.37369 0.37368-0.37369-0.37368m23.916 0.74737 0.37363 0.37368-0.37363-0.37368m18.684 0 0.37368 0.37368-0.37368-0.37368m2.2421 0.74737 0.37363 0.37368-0.37363-0.37368m-4.7335 0.62295 0.12491 0.249-0.12491-0.249m-23.667 0.49813v1.8684h0.74734l-0.74734-1.8684m26.532 0.37366 1.8684 1.4947 0.37363-1.8684-2.2421 0.37366m-31.016 0 0.37369 0.37368-0.37369-0.37368m38.24 1.3703 0.12491 0.24899-0.12491-0.24899m-10.961 0.12436-4.8579 4.1105c0.54969 2.6117 1.9503 3.3632 4.4842 3.3632 0.0608-2.3038 3.0306-5.7544 0.37369-7.4737m2.2421 0.37368 0.37368 0.37366-0.37368-0.37366m-14.947 0.74737c0.95103 2.4096 2.979 6.1695 5.2316 7.4737l0.74735-2.2421-5.9789-5.2316m-14.574 0.37371 0.37369 0.37369-0.37369-0.37369m21.674 0.37369 0.37369 0.37366-0.37369-0.37366m-7.4737 0.74737 0.37371 0.37366-0.37371-0.37366m20.179 0 0.37369 0.37366-0.37369-0.37366m-75.484 0.37366 0.37368 0.37368-0.37368-0.37368m-0.74737 1.121 0.37368 0.37369-0.37368-0.37369m71.374 0-0.37366 4.8579h0.37366v-2.2421h0.37368l0.74735 1.8684h0.37368l-0.74737-2.9895v-1.121l-0.74734-0.37369m1.121 0 0.37368 0.37369-0.37368-0.37369m3.3632 0v1.1211h0.37371l0.37369-1.1211h-0.7474m1.4948 0.37369 0.37371 0.37371-0.37371-0.37371m1.121 0.74731v0.37369l1.1211 0.37371-0.37371 1.121c1.7164 0.36139 3.9166 1.4473 2.9895 3.3632l2.9894 0.68502 1.8685-0.49815 2.2421 1.3079c-0.67339-2.5586-4.109-5.9999-7.1-5.5429-0.62032 0.0946-1.2548 0.52352-1.8684 0.68494l-1.8685-1.8684m-114.72 0.37369-0.3737 0.37371 0.3737-0.37371m94.169 0 0.37369 0.37371-0.37369-0.37371m19.556 0.24927 0.12464 0.24899-0.12464-0.24899m3.2387-0.24927 0.37371 0.37371-0.37371-0.37371m4.1105 0 0.37363 0.37371-0.37363-0.37371m4.8579 0 0.37366 0.37371-0.37366-0.37371m-90.058 0.37371 0.37366 0.37366-0.37366-0.37366m64.274 0 0.37365 0.37366-0.37365-0.37366m10.089 0 0.37372 0.37366-0.37372-0.37366m2.2421 0.74734v0.74737h1.1211v-0.74737h-1.1211m14.947 0 1.121 0.74737-1.121-0.74737m-16.069 0.37366 0.37372 0.37371-0.37372-0.37371m14.2 1.4948v0.37368l1.8685-1.121-1.8685 0.74737m-67.637-0.37366 0.37371 0.37366-0.37371-0.37366m51.942 0.37366 0.37368 0.37368-0.37368-0.37368m6.3526 0 0.37368 0.37368-0.37368-0.37368m12.705 0 0.37371 0.37368-0.37371-0.37368m-62.779 0.37368 0.37369 0.37372-0.37369-0.37372m32.511 0.37372v0.37365l4.8579 1.1211c-1.0104-1.3778-3.1887-1.4947-4.8579-1.4947m4.9824 0.24927 0.12463 0.24899-0.12463-0.24899m0.99664-0.24927 0.37365 0.37365-0.37365-0.37365m25.411 0 0.37369 0.37365-0.37369-0.37365m-21.674 0.37365 0.37369 0.37366-0.37369-0.37366m22.795 0 0.37369 0.37366-0.37369-0.37366m-16.94 0.4981 0.24899 0.12464-0.24899-0.12464m16.193-0.12436 0.37371 0.37369-0.37371-0.37369m-72.494 0.3738 0.37371 0.37366-0.37371-0.37366m53.437 0-1.4947 1.8684c0.9817-0.38756 2.0329-0.88189 1.4947-1.8684m20.926 0 0.74734 0.74734v-0.74734h-0.74734m-26.656 0.4981 0.249 0.12464-0.249-0.12464m1.9929-0.12436v0.74737l0.74737-0.74737h-0.74737m1.8684 0 0.37371 0.37369-0.37371-0.37369m22.421 0.37369 0.37369 0.37368-0.37369-0.37368m-25.037 0.37368 0.37371 0.37369-0.37371-0.37369m1.4948 0.37369 0.37366 0.37371-0.37366-0.37371m24.663 0 0.37368 0.37371-0.37368-0.37371m-5.6053 0.37371 0.37369 0.37368-0.37369-0.37368m4.4842 0.37368 0.37369 0.37372-0.37369-0.37372m-72.495 0.37372 0.37366 0.37363-0.37366-0.37363m54.184 2.9894-2.6158-0.49813-2.2421 1.6191-5.1072 4.173-0.49816 2.927v0.37369c0.74479 1.2302 1.2123 2.67 1.4324 4.1106 0.0988 0.64758-0.12766 1.6173 0.49848 2.0553 0.91666 0.642 2.4174-0.40281 3.3008-0.68497 3.3329-1.0646 6.0271-3.0205 8.5947 0.4981h0.37371l0.74734-1.4947h0.37372c0.0919 3.4013 3.9124 6.6362 7.0376 3.9237 1.4181-1.2305 2.1285-5.1012 2.3045-6.9132 0.33635-3.4603-1.753-4.5287-3.6124-7.1-1.0982-1.5194-1.7167-4.2155-2.3665-5.9789h-0.37371l-1.4947 4.8578c-2.386-0.94167-2.9772-2.1566-2.2421-4.4842-2.253-0.65207-4.0422 0.011-4.1105 2.6158m-53.437-2.2421 0.37363 0.37366-0.37363-0.37366m2.9895 0.37366c-0.62629 1.0818-2.0486 1.8382-2.4914 2.9894-0.27046 0.70368-0.038 1.518-0.249 2.2422-0.14664 0.50184-0.55045 0.95248-0.56055 1.4947-0.0193 1.0729 0.64348 3.596 2.1173 2.1797 0.53772-0.51642 0.57659-1.4955 0.74734-2.1797 0.46451-1.8579 2.1323-5.3441 0.43611-6.7263m-2.2421 0.37368 0.37369 0.37369-0.37369-0.37369m75.111 1.1211 0.37372 0.37369-0.37372-0.37369m-69.505 0.74737 0.37369 0.37366-0.37369-0.37366m69.505 0.37366 0.37372 0.37366-0.37372-0.37366m-67.637 2.9895 0.37368 0.37366-0.37368-0.37366m66.516 0 1.121 1.121-1.121-1.121m-67.637 0.37366 0.37372 0.37366-0.37372-0.37366m50.448 11.211 0.37366 0.37369-0.37366-0.37369m6.7263 3.3632 0.37369 0.37368-0.37369-0.37368m-2.2422 0.37368 0.37371 0.37372-0.37371-0.37372m0.7474 0.7474 0.37371 1.8684c1.1506-0.12436 1.3703-0.34411 1.4947-1.4947l-1.8684-0.37366m13.826 4.8579c1.8607 0 5.0796-3.1591 5.4456-4.762 0.0904-0.39581-1.146 0.17533-1.1108-0.27039-1.2928 0.3843-1.7874 3.1248-4.3309 4.0004 0 0 0.68262 0.53981 0.64391 0.90741m-151.37-3.4878 0.249 0.12463-0.249-0.12463m151.09 4.3598 0.37371 0.37368-0.37371-0.37368m-1.4947 2.2421 0.37368 0.37371-0.37368-0.37371" fill="#61a7ac" filter="url(#filter8408)" opacity=".70124"/>
  </mask>
 </defs>
 <g transform="translate(-464.44 86.509)">
  <circle cx="466.55" cy="-84.392" r="2.1167" fill="#c6e4f6" stroke-linecap="round" stroke-linejoin="round" stroke-width=".0060682" style="paint-order:markers stroke fill"/>
  <circle transform="matrix(.022935 0 0 .022935 449.93 -87.544)" cx="724.96" cy="137.74" r="92.289" fill="#41a790" mask="url(#mask9139)" stroke-linecap="round" stroke-linejoin="round" stroke-width=".26458" style="paint-order:markers stroke fill"/>
  <g transform="matrix(.022935 0 0 .022935 450.95 -87.067)" fill="#005aab">
   <path d="m637.41 138.33c-4.1903 0.19177-6.3122-0.0883-9.1266-1.2052-2.6384-1.047-4.4058-2.427-6.3012-4.9198-1.4488-1.9056-2.747-4.0906-2.8847-4.8557-0.21075-1.1701 0.49643-1.5592 4.4531-2.4504 3.2196-0.72508 4.7852-0.81453 4.9622-0.28341 0.14224 0.42676 0.90956 1.6034 1.7051 2.6148 0.79555 1.0114 2.7073 2.1784 4.2483 2.5933 1.9638 0.52884 3.4218 0.51956 4.8747-0.0308 1.1401-0.43199 2.8049-1.4711 3.6996-2.3092 0.89473-0.83811 1.8173-2.5395 2.0502-3.7808 0.23276-1.2414 0.0889-3.1373-0.32034-4.2132-0.40906-1.0759-1.5656-2.4947-2.5701-3.1529-1.0045-0.65817-3.8035-1.376-6.2201-1.5951l-4.3937-0.39842v-7.8053l2.3658-3e-3c1.3012-2e-3 3.5846-0.34254 5.0742-0.75625 1.4896-0.41369 3.2094-1.4675 3.8218-2.3418s1.1134-2.6781 1.1134-4.0085c0-1.5977-0.60664-3.0256-1.7868-4.2058-1.3877-1.3877-2.5472-1.7868-5.1917-1.7868-2.9613 0-3.7244 0.33871-5.857 2.6l-2.4521 2.6-3.9446-0.88279c-2.1696-0.48552-4.3296-1.1207-4.8001-1.4114-0.63921-0.39504-0.57852-1.059 0.24019-2.6271 0.6026-1.1542 2.0257-2.9396 3.1625-3.9678 1.1368-1.0281 2.909-2.3894 3.9383-3.0251s3.691-1.3832 5.9148-1.661c2.4873-0.31077 5.6214-0.15215 8.1438 0.41245 2.6924 0.60251 5.0802 1.7563 6.9538 3.36 1.5694 1.3433 3.2427 3.6219 3.7184 5.0634 0.47576 1.4416 0.71309 4.2021 0.52741 6.1346-0.18572 1.9324-0.90296 4.3764-1.594 5.431-0.69099 1.0546-2.3805 2.5807-3.7544 3.3913l-2.498 1.4739 3.0976 1.5638c2.2165 1.1189 3.5635 2.4877 4.7355 4.8118 0.90249 1.7897 1.6379 4.5854 1.6379 6.2267 0 1.7388-0.77788 4.5396-1.8689 6.729-1.4046 2.8186-2.8063 4.3309-5.6416 6.0867-3.1984 1.9805-4.604 2.3743-9.2324 2.5862zm44.094 0.17664c-1.2299-0.0336-4.1284-0.46737-6.441-0.96407-2.3127-0.49666-5.0971-1.5647-6.1876-2.3734-1.0905-0.80872-2.9602-2.8524-4.1548-4.5415-1.8352-2.5948-2.214-3.9014-2.4424-8.4242-0.15049-2.979 0.12024-6.5906 0.61041-8.1436 0.4844-1.5348 4.4985-8.6051 8.9202-15.712l8.0395-12.921h5.3514c2.9433 0 5.3514 0.17526 5.3514 0.38978 0 0.21433-2.1545 3.7358-4.7876 7.8255-2.6332 4.0897-5.2711 8.1386-5.862 8.9978l-1.0744 1.562 4.2372-0.0399c3.3309-0.0314 4.8571 0.35446 7.136 1.804 1.5943 1.0141 3.7454 2.8042 4.7801 3.9779 1.0347 1.1737 2.2631 3.2293 2.7298 4.5681 0.4667 1.3388 0.84853 4.4111 0.84853 6.8274 0 2.9684-0.49339 5.4125-1.5213 7.5358-0.83671 1.7284-2.7019 4.1157-4.145 5.3052-1.443 1.1895-4.0926 2.6632-5.888 3.2749s-4.2705 1.0848-5.5004 1.0512zm-0.4163-9.0538c0.60055-0.12822 1.8146-0.44033 2.6979-0.6937 0.88326-0.25339 2.4393-1.451 3.4578-2.6614 1.4091-1.6746 1.8519-3.019 1.8519-5.6228 0-1.9227-0.49777-4.1326-1.1361-5.044-0.62485-0.89212-2.0827-2.1115-3.2396-2.7098-1.1569-0.59828-3.1188-1.0878-4.3597-1.0878s-3.2171 0.49692-4.3916 1.1043c-1.1745 0.60733-2.6688 2.1357-3.3207 3.3964-0.79395 1.5353-1.0662 3.3489-0.82458 5.4927 0.22121 1.9613 1.012 3.8938 2.0428 4.991 0.92516 0.98479 2.6829 2.078 3.9061 2.4293 1.2232 0.35135 2.7153 0.53395 3.3159 0.4058zm44.769 8.5581c-1.6015 0.19341-4.2222 0.13206-5.8236-0.1362-1.6015-0.26852-3.9374-1.0295-5.191-1.6912-1.2535-0.66177-4.0857-2.6285-5.1973-3.9441-1.1117-1.3156-1.9523-2.1563-3.1839-4.9194-0.34851-0.78187-1.1617-1.818-1.6369-5.1313l-0.0391-9.8274c-0.0294-7.4118 0.27568-10.844 1.2412-13.965 0.70412-2.2756 2.342-5.5225 3.6398-7.2155 1.2978-1.6929 3.6404-3.7395 5.2058-4.5478 1.5654-0.80836 4.601-1.6153 6.7459-1.7932 2.1448-0.17774 5.4394 0.10757 7.3212 0.63456 2.2374 0.62645 4.4676 2.004 6.4443 3.9808 1.7965 1.7965 3.7068 4.7672 4.7089 7.3227 1.4553 3.7113 1.6925 5.6452 1.7329 14.127 0.0382 8.0001-0.22396 10.625-1.4091 14.115-0.80075 2.3582-2.6757 5.6745-4.1666 7.3695-1.4909 1.695-3.7839 3.574-5.0957 4.1756-1.3118 0.60153-3.6953 1.252-5.2968 1.4454zm-2.4735-8.1814c1.0418 2e-3 3.0073-0.74192 4.3677-1.652 1.7106-1.1444 2.8701-2.7721 3.7592-5.2777 1.0116-2.8506 1.2372-5.4096 1.0583-12.004-0.18874-6.9625-0.51156-8.9681-1.9062-11.849-0.98503-2.0348-2.5356-3.9111-3.752-4.5401-1.1403-0.58963-2.7292-1.0721-3.531-1.0721-0.80179 0-2.3002 0.38384-3.3298 0.85294-1.0296 0.46913-2.485 1.8614-3.2343 3.0938-0.74924 1.2325-1.7583 4.0449-2.2423 6.2499-0.48745 2.2208-0.75801 7.0914-0.60658 10.919 0.19259 4.8683 0.68194 7.7424 1.6559 9.7261 0.76041 1.5487 2.3915 3.431 3.6247 4.183s3.0945 1.3685 4.1364 1.37z" stroke-width=".72795"/>
   <text transform="scale(1.0615 .94206)" x="586.55975" y="166.97121" font-family="'Tw Cen MT'" font-size="19.829px" letter-spacing="8.7355px" stroke-width=".26458" style="line-height:1.25" xml:space="preserve"><tspan x="586.55975" y="166.97121" fill="#005aab" font-family="'Trebuchet MS'" stroke-width=".26458">TRAVEL</tspan></text>
  </g>
 </g>
</svg>
