<?xml version="1.0" encoding="UTF-8"?>
<!-- Created with Inkscape (http://www.inkscape.org/) -->
<svg width="51.599mm" height="72.848mm" version="1.1" viewBox="0 0 51.599 72.848" xmlns="http://www.w3.org/2000/svg" xmlns:xlink="http://www.w3.org/1999/xlink">
 <defs>
  <pattern id="pattern3174" patternTransform="matrix(.26458 0 0 .26458 461.6 457.07)" xlink:href="#pattern2718-3"/>
  <pattern id="pattern2718-3" width="463.98959" height="203.04039" patternTransform="translate(-10.725 2432.4)" patternUnits="userSpaceOnUse">
   <path d="m69.339 202.37c-15.837 0.7248-23.857-0.33373-34.494-4.5549-9.9718-3.9571-16.652-9.1729-23.815-18.595-5.476-7.2023-10.382-15.461-10.903-18.352-0.79654-4.4226 1.8763-5.8932 16.831-9.2612 12.168-2.7405 18.086-3.0785 18.755-1.0712 0.5376 1.613 3.4377 6.0601 6.4445 9.8826s10.232 8.2332 16.057 9.8015c7.4224 1.9988 12.933 1.9637 18.424-0.11641 4.3089-1.6327 10.601-5.5602 13.983-8.7278 3.3817-3.1677 6.8686-9.5981 7.7487-14.29 0.87972-4.6918 0.336-11.858-1.2107-15.924-1.5461-4.0665-5.9173-9.4289-9.7138-11.917-3.7965-2.4876-14.376-5.2005-23.509-6.0286l-16.606-1.5058v-29.5l8.9418-0.01134c4.918-0.0076 13.548-1.2946 19.178-2.8583 5.6301-1.5636 12.13-5.5465 14.445-8.8508 2.3144-3.3043 4.2081-10.122 4.2081-15.15 0-6.0384-2.2928-11.435-6.7532-15.896-5.245-5.245-9.6274-6.7532-19.622-6.7532-11.192 0-14.076 1.2802-22.137 9.8267l-9.2677 9.8268-14.909-3.3365c-8.1999-1.835-16.364-4.2356-18.142-5.3346-2.4159-1.4931-2.1865-4.0027 0.9078-9.9293 2.2775-4.3623 7.6562-11.11 11.953-14.996 4.2965-3.8858 10.995-9.0308 14.885-11.434 3.8903-2.4027 13.95-5.2278 22.355-6.2779 9.4007-1.1746 21.246-0.57506 30.78 1.5589 10.176 2.2772 19.201 6.638 26.282 12.699 5.9314 5.0772 12.256 13.689 14.054 19.137 1.7982 5.4484 2.6952 15.882 1.9934 23.186-0.70193 7.3036-3.4128 16.541-6.0244 20.526-2.6116 3.9859-8.997 9.7538-14.19 12.818l-9.4414 5.5706 11.708 5.9103c8.3772 4.2291 13.468 9.4022 17.898 18.186 3.411 6.7643 6.1904 17.331 6.1904 23.534 0 6.572-2.94 17.158-7.0636 25.433-5.3085 10.653-10.606 16.369-21.323 23.005-12.088 7.4855-17.401 8.9738-34.894 9.7748zm166.65 0.66761c-4.6484-0.12699-15.603-1.7664-24.344-3.6437-8.7408-1.8771-19.265-5.9139-23.386-8.9704-4.1216-3.0566-11.188-10.781-15.703-17.165-6.9361-9.807-8.3678-14.745-9.231-31.839-0.56878-11.259 0.45445-24.909 2.3071-30.779 1.8308-5.8008 17.002-32.523 33.714-59.383l30.385-48.836h20.226c11.124 0 20.226 0.6624 20.226 1.4732 0 0.81007-8.1428 14.12-18.095 29.577-9.9523 15.457-19.922 30.76-22.156 34.007l-4.0608 5.9037 16.014-0.1508c12.589-0.11868 18.358 1.3397 26.971 6.8183 6.0258 3.833 14.156 10.599 18.067 15.035 3.9108 4.436 8.5536 12.205 10.318 17.265 1.7639 5.0599 3.207 16.672 3.207 25.804 0 11.219-1.8648 20.457-5.7496 28.482-3.1624 6.5325-10.212 15.556-15.666 20.051-5.454 4.4957-15.468 10.066-22.254 12.378-6.7856 2.312-16.141 4.1-20.789 3.9732zm-1.5734-34.219c2.2698-0.48461 6.8583-1.6642 10.197-2.6219 3.3383-0.9577 9.2193-5.4841 13.069-10.059 5.3257-6.3293 6.9992-11.41 6.9992-21.251 0-7.2669-1.8813-15.619-4.2941-19.064-2.3616-3.3718-7.8716-7.9806-12.244-10.242-4.3726-2.2612-11.788-4.1113-16.478-4.1113s-12.159 1.8781-16.598 4.1736c-4.4389 2.2954-10.087 8.072-12.551 12.837-3.0008 5.8028-4.0298 12.657-3.1165 20.76 0.83607 7.4128 3.825 14.717 7.721 18.864 3.4967 3.722 10.14 7.8538 14.763 9.1818 4.6231 1.3279 10.263 2.0181 12.533 1.5337zm169.21 32.346c-6.053 0.731-15.958 0.49912-22.011-0.51477-6.0529-1.0149-14.882-3.8909-19.619-6.3921-4.7378-2.5012-15.442-9.9343-19.643-14.907-4.2016-4.9724-7.3789-8.1497-12.034-18.593-1.3172-2.9551-4.3907-6.8711-6.1866-19.394l-0.14778-37.143c-0.11112-28.013 1.0419-40.987 4.6912-52.78 2.6612-8.6006 8.8517-20.873 13.757-27.271 4.905-6.3984 13.759-14.133 19.675-17.189 5.9164-3.0552 17.39-6.1051 25.496-6.7773 8.1065-0.67177 20.558 0.40656 27.671 2.3983 8.4564 2.3677 16.885 7.5743 24.356 15.045 6.7898 6.7898 14.01 18.018 17.797 27.676 5.5003 14.027 6.3969 21.336 6.5496 53.395 0.14438 30.237-0.84646 40.156-5.3257 53.348-3.0265 8.9129-10.113 21.447-15.748 27.853-5.6348 6.4064-14.301 13.508-19.259 15.782-4.9578 2.2735-13.967 4.7319-20.019 5.4631zm-9.3487-30.922c3.9377 8e-3 11.366-2.8041 16.508-6.2439 6.4654-4.3253 10.848-10.477 14.208-19.947 3.8235-10.774 4.6762-20.446 4-45.369-0.71335-26.315-1.9335-33.895-7.2046-44.784-3.723-7.6906-9.5836-14.782-14.181-17.16-4.3096-2.2285-10.315-4.052-13.346-4.052-3.0304 0-8.6937 1.4507-12.585 3.2237-3.8914 1.7731-9.3923 7.0351-12.224 11.693-2.8318 4.6582-6.6454 15.288-8.4748 23.622-1.8423 8.3936-2.8649 26.802-2.2926 41.27 0.7279 18.4 2.5774 29.263 6.2586 36.76 2.874 5.8533 9.0388 12.968 13.7 15.81s11.696 5.1721 15.633 5.1778z" fill="#005aab" stroke-width="2.7513"/>
  </pattern>
  <clipPath id="clipPath3757">
   <path d="m453.39 466.23c1.196 0.99666 13.156 11.362 13.156 11.362l-1.9933 14.95-8.7705 5.5812 15.946 31.095 25.514-11.561 2.7906-63.985-43.653 1.5946z" fill="#b4e1e0" fill-opacity=".51422"/>
  </clipPath>
 </defs>
 <g transform="matrix(3.0544 0 0 3.0544 -1666 -1661.5)">
  <rect transform="matrix(.43955 0 0 .44396 342.54 341.05)" x="461.6" y="457.07" width="122.76" height="53.721" clip-path="url(#clipPath3757)" fill="url(#pattern3174)"/>
 </g>
</svg>
